<?xml version="1.0" encoding="iso-8859-1"?>
<!-- Generator: Adobe Illustrator 18.1.1, SVG Export Plug-In . SVG Version: 6.00 Build 0)  -->
<svg version="1.1" id="Capa_1" xmlns="http://www.w3.org/2000/svg" xmlns:xlink="http://www.w3.org/1999/xlink" x="0px" y="0px"
	 viewBox="0 0 16.555 16.555" style="enable-background:new 0 0 16.555 16.555;" xml:space="preserve">
<g>
	<g>
		<path style="fill:#030104;" d="M6.409,7.421c0.034,0.207,0.114,0.337,0.193,0.42C6.789,9.084,7.83,10.24,8.781,10.24
			c1.11,0,2.12-1.25,2.314-2.397c0.08-0.082,0.16-0.213,0.195-0.422c0.063-0.233,0.146-0.639,0.002-0.828
			c-0.007-0.01-0.017-0.019-0.022-0.028c0.133-0.489,0.303-1.501-0.303-2.19C10.912,4.306,10.572,3.9,9.846,3.686L9.5,3.566
			C8.928,3.39,8.568,3.35,8.553,3.349c-0.026-0.002-0.053,0-0.078,0.006C8.454,3.361,8.387,3.379,8.334,3.372
			c-0.137-0.02-0.342,0.05-0.378,0.064C7.909,3.455,6.802,3.898,6.466,4.93C6.435,5.013,6.3,5.452,6.479,6.527
			c-0.027,0.018-0.05,0.041-0.071,0.067C6.264,6.783,6.345,7.188,6.409,7.421z"/>
		<path style="fill:#030104;" d="M12.33,10.637c0,0-0.045-0.015-0.114-0.037c-0.478-0.224-0.929-0.367-0.929-0.367
			c-0.098-0.033-0.182-0.067-0.26-0.103c-0.322-0.159-0.592-0.34-0.648-0.51c0,0,0.188,1.81-1.395,1.851l-0.219-0.01
			c-1.433-0.127-1.528-1.845-1.528-1.845c-0.15,0.471-1.952,1.019-1.952,1.019c-0.536,0.204-0.762,0.514-0.762,0.514
			c-0.792,1.176-0.885,3.789-0.885,3.789c0.01,0.598,0.268,0.66,0.268,0.66c1.821,0.812,4.679,0.955,4.679,0.955
			c0.154,0.004,0.298-0.004,0.441-0.013l0.003,0.015c0,0,2.858-0.145,4.679-0.957c0,0,0.258-0.063,0.269-0.658
			c0,0-0.094-2.614-0.886-3.789C13.092,11.148,12.865,10.841,12.33,10.637z"/>
		<path style="fill:#030104;" d="M10.316,9.698c0.021-0.026,0.041-0.052,0.063-0.078c-0.004-0.017-0.005-0.026-0.005-0.026
			C10.356,9.632,10.336,9.661,10.316,9.698z"/>
		<path style="fill:#030104;" d="M7.246,9.614L7.241,9.595L7.237,9.616c0.001-0.004,0.004-0.009,0.006-0.011
			C7.243,9.605,7.244,9.607,7.246,9.614z"/>
		<path style="fill:#030104;" d="M8.732,0C4.436,0,0.94,3.496,0.94,7.792c0,0.849,0.148,1.692,0.417,2.492l-0.702-0.157
			c-0.277-0.065-0.55,0.111-0.612,0.388c-0.062,0.275,0.111,0.549,0.388,0.611l2.332,0.523c0.038,0.008,0.075,0.012,0.112,0.012
			c0.234,0,0.446-0.162,0.5-0.399l0.499-2.221c0.062-0.276-0.112-0.55-0.387-0.612C3.208,8.368,2.937,8.54,2.875,8.816L2.706,9.571
			C2.537,8.998,2.441,8.404,2.441,7.792c0-3.47,2.823-6.292,6.292-6.292s6.292,2.823,6.292,6.292c0,1.047-0.262,2.082-0.758,2.992
			l1.318,0.717c0.614-1.131,0.939-2.412,0.939-3.709C16.524,3.496,13.028,0,8.732,0z"/>
	</g>
</g>
<g>
</g>
<g>
</g>
<g>
</g>
<g>
</g>
<g>
</g>
<g>
</g>
<g>
</g>
<g>
</g>
<g>
</g>
<g>
</g>
<g>
</g>
<g>
</g>
<g>
</g>
<g>
</g>
<g>
</g>
</svg>
