<svg id="Layer_1" data-name="Layer 1" xmlns="http://www.w3.org/2000/svg" viewBox="0 0 200 200"><defs><style>.cls-1,.cls-2,.cls-3,.cls-4{fill:none;stroke:#000;}.cls-1,.cls-2,.cls-4{stroke-linecap:round;}.cls-1{stroke-linejoin:round;}.cls-1,.cls-2,.cls-3{stroke-width:0.86px;}.cls-2,.cls-3,.cls-4{stroke-miterlimit:10;}.cls-4{stroke-width:1.23px;}</style></defs><path d="M144.81,167.85l-21.64,7.62-.07-.16-2.37-6.92c.67-.21,7.41-2.4,7.43-2.61v-.08h.28c1.31-.34,7.41.37,11.66-.57C142.16,164.69,144.4,165.16,144.81,167.85Z"/><path d="M77.42,177.43v.23l-12.1-.24-9.77-4.73h0l3.22-6.43,6.9,2.82c3.75,1.89,3.88,4.42,5.76,4.36C74.62,173.31,77.18,175.71,77.42,177.43Z"/><path d="M59.11,99l-.56.14c-5.72-16.93,1.31-38,19.55-46.09l8.1-1.4a2.19,2.19,0,0,1,1.51-2.2,1.65,1.65,0,0,1,.32-.07,40.35,40.35,0,0,1,9.78,0,2,2,0,0,1,.48.15c.81.48,1,1.22,1.32,2,0,0,7.46-.52,9.53,1.79,3.72,4.13,7.84,10.46,8.14,10.37s.51-8.64.4-17.5l0-.18a8,8,0,0,0,1.12-.27,7,7,0,0,0,2.85-.78l0-.06.71.32.35.17,0,.08c.63,5.22,2.93,26.31-.68,30.13-1.54,1.63-15.62-8.4-15.62-8.4s5.55,34.1,5.8,37.92h-1.74l-37.52.26c.07-7.26,3.59-30.7,5.1-40.56v0S61.83,74.22,64.85,97.19C64.9,97.62,60.66,98.67,59.11,99Z"/><path d="M102.44,34.06a.73.73,0,0,1-.14,1,.73.73,0,0,1-.88-1.16A.73.73,0,0,1,102.44,34.06Z"/><path d="M95.92,33.55a.42.42,0,0,1-.12.58.43.43,0,0,1-.58-.12.42.42,0,0,1,.13-.58A.41.41,0,0,1,95.92,33.55Z"/><polygon class="cls-1" points="123.81 177.29 145.55 169.75 144.93 167.95 123.19 175.49 123.81 177.29"/><path class="cls-2" d="M95.42,124.32a1.5,1.5,0,0,1,.14.16c1.33,1.67,11.21,14.88,11.53,15.56,2.33,5,12.69,26.38,13.59,28.37l0,0c.67-.21,7.41-2.4,7.43-2.61v-.08c.12-2.39-3-19.69-6-36-.18-1-6.72-15-11.74-24.51v0"/><path class="cls-1" d="M128.45,165.71c1.31-.34,7.41.37,11.66-.57,2-.45,4.29,0,4.7,2.71l-21.64,7.62"/><polyline class="cls-3" points="120.66 168.17 120.73 168.39 123.1 175.31"/><path class="cls-2" d="M66.16,169.27c1.63-1.08,16.86-17.56,23.27-26.21,2.2-3,4.23-10.74,6.13-18.58,1.14-4.7,2.24-9.43,3.3-13.15"/><path class="cls-2" d="M74.23,105.89c0,2.84,0,6,0,9.11-.13,8.2-.6,16.46-2.13,19.63-4,8.28-13.24,31.55-13.24,31.55"/><path class="cls-2" d="M81.56,109.46c-1.06,3.67-4,5.32-7.37,5.54a13.69,13.69,0,0,1-4.43-.46"/><polygon class="cls-1" points="55.54 172.69 55.54 172.69 54.45 174.72 64.85 179.53 77.41 179.56 77.43 177.66 77.42 177.66 65.31 177.42 55.54 172.69"/><path class="cls-1" d="M77.42,177.43c-.24-1.72-2.8-4.12-6-4-1.88.06-2-2.47-5.76-4.36l-6.9-2.82-3.22,6.43"/><path class="cls-2" d="M98.83,35.93c0,.87-.13,2.55-1.49,1.75"/><path class="cls-2" d="M101.5,39.88c-1.41,2-2.92,3.59-3.57,3.78a2.35,2.35,0,0,1-.53.09c-2.09.17-4.51-1.91-5.2-3.81"/><path class="cls-2" d="M105.51,29.1a19.68,19.68,0,0,1,.95,3.48c.31,2-1.29,5.16-3.07,7.72"/><path class="cls-2" d="M90.6,28.83c.05-.19.18-.86.44-1.75.11-.38.24-.79.41-1.23s.31-.81.5-1.23c.9-1.91,2.32-3.82,4.51-4.15,1.49-.23,2.87.87,4.06,2.48a17.84,17.84,0,0,1,1.34,2.18v0a29.92,29.92,0,0,1,1.64,3.75"/><path class="cls-3" d="M87.71,49.49h0c.59-5.75.84-10.66,1.92-16.35"/><path class="cls-3" d="M97.4,43.75c-.09,2.24-.37,3.72.42,5.59"/><path class="cls-2" d="M91.31,30a5,5,0,0,0-.76-1.08c-2.12-2.25-4.11,2-3.28,3.4a2.24,2.24,0,0,0,2.33.78h0a2.64,2.64,0,0,0,.56-.17"/><path class="cls-3" d="M91.13,27.06l-.07,0h0c-1,.21-8.29,1.35-8-1,.13-1.18,4.25-1.49,8.78-1.46H92c3.45,0,7.63.35,9.92.53h0"/><path class="cls-4" d="M103.31,32.21a2.74,2.74,0,0,0-2.44-.3"/><path class="cls-2" d="M89.93,30.63a2.44,2.44,0,0,1-1.62.47"/><path class="cls-1" d="M105.52,29h.06a5.83,5.83,0,1,1-2.23,11.45h0a5.8,5.8,0,0,1-4-3.13,5.84,5.84,0,0,1,2.68-7.8,5.76,5.76,0,0,1,1.3-.46l.24-.05A5.73,5.73,0,0,1,105.52,29Z"/><path class="cls-2" d="M96.45,31.05A2.75,2.75,0,0,0,94,31"/><path class="cls-2" d="M95.17,40.23a1.77,1.77,0,0,0,2.71.32"/><path class="cls-1" d="M113.76,43.06c-.82-.71.09-2.75.89-3.88a3.49,3.49,0,0,1,.46-.55,1.69,1.69,0,0,1,2.54.14"/><path class="cls-1" d="M117.19,43.7a.5.5,0,0,0,0,.12c-.07.58-1.5.3-1.31-.85"/><path class="cls-1" d="M118.75,40.48a9.4,9.4,0,0,0-1.56,3.22"/><path class="cls-1" d="M116.17,40.5A2.78,2.78,0,0,1,117.48,39a.71.71,0,0,1,.18-.08c1-.36,2,.3,1.34,1.25l-.25.34"/><path class="cls-1" d="M120.5,42.12c-1.14-.43-1.35.89-1.53,1.73a2.25,2.25,0,0,0,0,.22.89.89,0,0,1-1.73-.37h0"/><path class="cls-1" d="M118.75,40.48h0c.58-.73,1.14-.95,1.89-.6a3.14,3.14,0,0,1,1.62,2.91"/><path class="cls-1" d="M113.37,40.94l-1.48-.76a.6.6,0,0,1-.27-.79l0-.08.37-.74,0,0a.59.59,0,0,1,.8-.26l1.65.82"/><path class="cls-1" d="M120.41,42.08l.09,0,1.73.75.82.35,1.13.56a.6.6,0,0,1,.27.79l0,.07-.4.8a.61.61,0,0,1-.8.27l-.52-.27-.35-.17-.71-.32-2.44-1.09"/><path class="cls-1" d="M112,38.57l0,.09-.3.59a.21.21,0,0,1,0,.06.4.4,0,0,1-.5.12l-1.54-.78a.41.41,0,0,1-.17-.54l.29-.58a.4.4,0,0,1,.54-.18l1.54.78A.39.39,0,0,1,112,38.57Z"/><path class="cls-1" d="M121.62,45a7,7,0,0,1-2.85.78,8,8,0,0,1-1.12.27c-1.5.26-4,.21-3.84-2.91a.22.22,0,0,0,0-.08,3.3,3.3,0,0,1,1.26-2.22,1.86,1.86,0,0,1,1.09-.35l.18,0a.76.76,0,0,1,.64.8c0,.43-.79.82-1.18,1.62a2,2,0,0,0-.2,1.06"/><path class="cls-1" d="M117.68,46.24c.11,8.86-.22,17.45-.4,17.5s-4.42-6.24-8.14-10.37c-2.07-2.31-9.53-1.79-9.53-1.79-.33-.83-.51-1.57-1.32-2a2,2,0,0,0-.48-.15,40.35,40.35,0,0,0-9.78,0,1.65,1.65,0,0,0-.32.07,2.19,2.19,0,0,0-1.51,2.2l-8.1,1.4c-18.24,8.1-25.27,29.16-19.55,46.09l.56-.14c1.55-.37,5.79-1.42,5.74-1.85C61.83,74.22,78,64.86,78,64.86v0c-1.51,9.86-5,33.3-5.1,40.56l37.52-.26h1.74c-.25-3.82-5.8-37.92-5.8-37.92s14.08,10,15.62,8.4c3.61-3.82,1.31-24.91.68-30.13"/><path class="cls-1" d="M65.06,102.36c1.51,4.43-.68,8.51-2.8,7.18"/><path class="cls-1" d="M63.37,103.2a6.92,6.92,0,0,1-1,6.14l-.14.2c-.36.46-1,1.19-1.65.74a1.13,1.13,0,0,1-.27-1.44"/><path class="cls-1" d="M61.33,103.7c.51,1.6-.63,5.33-1.63,5.83-1.18.66-1.79-.63-1.21-1.74,1.94-3.73-.65-6.93.62-8.75l0,0"/><path class="cls-1" d="M65.6,105.29a1.39,1.39,0,0,0,1.47-1.66,10.21,10.21,0,0,0-2.74-5.72"/></svg>